<svg width="200" height="200" viewBox="0 0 200 200" fill="none" xmlns="http://www.w3.org/2000/svg">
<circle r="99.5" transform="matrix(-1 0 0 1 100 100)" stroke="white"/>
<path d="M65.5571 98.0753L88.2583 75.3741C88.9961 74.6363 90.1955 74.6363 90.9332 75.3741C91.671 76.1119 91.671 77.3112 90.9332 78.049L71.4632 97.5191L133.108 97.5191C134.152 97.5191 135 98.3666 135 99.4108C135 100.455 134.152 101.303 133.108 101.303L71.4632 101.303L90.9332 120.773C91.671 121.51 91.671 122.71 90.9332 123.448C90.5625 123.818 90.0782 124 89.5939 124C89.1096 124 88.6253 123.815 88.2545 123.448L65.5533 100.746C64.8156 100.009 64.8156 98.8093 65.5533 98.0715L65.5571 98.0753Z" fill="white"/>
</svg>
