<svg width="14" height="22" viewBox="0 0 14 22" fill="none" xmlns="http://www.w3.org/2000/svg">
<path d="M13.0665 0.618135C13.0665 0.456111 13.0043 0.300724 12.8935 0.186156C12.7826 0.0715881 12.6323 0.0072244 12.4756 0.0072244H9.52107C8.03331 -0.0693949 6.57669 0.465885 5.46947 1.49611C4.36226 2.52634 3.69446 3.96775 3.61198 5.50542V8.80433H0.657437C0.500719 8.80433 0.350419 8.8687 0.239602 8.98327C0.128785 9.09783 0.0665283 9.25322 0.0665283 9.41524V12.592C0.0665283 12.754 0.128785 12.9094 0.239602 13.024C0.350419 13.1385 0.500719 13.2029 0.657437 13.2029H3.61198V21.3891C3.61198 21.5511 3.67424 21.7065 3.78506 21.8211C3.89587 21.9356 4.04617 22 4.20289 22H7.74835C7.90507 22 8.05537 21.9356 8.16618 21.8211C8.277 21.7065 8.33926 21.5511 8.33926 21.3891V13.2029H11.4356C11.567 13.2048 11.6953 13.1614 11.8002 13.0796C11.9051 12.9977 11.9806 12.882 12.0147 12.7508L12.8656 9.57408C12.8891 9.48382 12.8923 9.38918 12.8749 9.29745C12.8574 9.20572 12.8199 9.11936 12.7651 9.045C12.7103 8.97064 12.6397 8.91028 12.5588 8.86855C12.4779 8.82683 12.3888 8.80486 12.2983 8.80433H8.33926V5.50542C8.36865 5.20299 8.50603 4.92275 8.72456 4.71941C8.94309 4.51608 9.22708 4.40426 9.52107 4.40578H12.4756C12.6323 4.40578 12.7826 4.34142 12.8935 4.22685C13.0043 4.11228 13.0665 3.95689 13.0665 3.79487V0.618135Z" fill="white"/>
</svg>
