<svg width="23" height="22" viewBox="0 0 23 22" fill="none" xmlns="http://www.w3.org/2000/svg">
<path fill-rule="evenodd" clip-rule="evenodd" d="M6.53147 0.066C7.70481 0.01222 8.07881 0 11.0665 0C14.0548 0 14.4282 0.01283 15.6009 0.066C16.7724 0.11917 17.5724 0.30556 18.2721 0.5775C19.006 0.85381 19.6708 1.28674 20.2203 1.84617C20.7798 2.3956 21.2128 3.06046 21.489 3.79439C21.7609 4.49411 21.9467 5.29406 22.0005 6.46494C22.0543 7.63828 22.0665 8.01228 22.0665 11C22.0665 13.9877 22.0537 14.3617 22.0005 15.5351C21.9473 16.7059 21.7609 17.5059 21.489 18.2056C21.2079 18.9286 20.8314 19.5427 20.2203 20.1538C19.6709 20.7133 19.006 21.1463 18.2721 21.4225C17.5724 21.6944 16.7724 21.8802 15.6016 21.934C14.4282 21.9878 14.0542 22 11.0665 22C8.07881 22 7.70481 21.9872 6.53147 21.934C5.36059 21.8808 4.56064 21.6944 3.86092 21.4225C3.13797 21.1414 2.52381 20.7649 1.9127 20.1538C1.35317 19.6044 0.920208 18.9395 0.644028 18.2056C0.372088 17.5059 0.186308 16.7059 0.132528 15.5351C0.0787483 14.3617 0.0665283 13.9883 0.0665283 11C0.0665283 8.01167 0.0793583 7.63828 0.132528 6.46556C0.185698 5.29406 0.372088 4.49411 0.644028 3.79439C0.920338 3.06051 1.35327 2.39568 1.9127 1.84617C2.46212 1.28664 3.12698 0.85368 3.86092 0.5775C4.56064 0.30556 5.36059 0.11978 6.53147 0.066ZM15.5117 2.046C14.3518 1.99344 14.0035 1.98183 11.0665 1.98183C8.12953 1.98183 7.7812 1.99344 6.62131 2.046C5.54881 2.09489 4.96642 2.27394 4.57897 2.42489C4.06564 2.62411 3.69897 2.86244 3.31397 3.24744C2.92959 3.63244 2.69064 3.99911 2.49142 4.51244C2.34047 4.89989 2.16142 5.48228 2.11253 6.55478C2.05997 7.71467 2.04836 8.063 2.04836 11C2.04836 13.937 2.05997 14.2853 2.11253 15.4452C2.16142 16.5177 2.34047 17.1001 2.49142 17.4876C2.66764 17.9654 2.94872 18.3976 3.31397 18.7526C3.66887 19.1178 4.10114 19.3989 4.57897 19.5751C4.96642 19.7261 5.54881 19.9051 6.62131 19.954C7.7812 20.0066 8.12892 20.0182 11.0665 20.0182C14.0041 20.0182 14.3518 20.0066 15.5117 19.954C16.5842 19.9051 17.1666 19.7261 17.5541 19.5751C18.0674 19.3759 18.4341 19.1376 18.8191 18.7526C19.1843 18.3977 19.4654 17.9654 19.6416 17.4876C19.7926 17.1001 19.9716 16.5177 20.0205 15.4452C20.0731 14.2853 20.0847 13.937 20.0847 11C20.0847 8.063 20.0731 7.71467 20.0205 6.55478C19.9716 5.48228 19.7926 4.89989 19.6416 4.51244C19.4424 3.99911 19.2041 3.63244 18.8191 3.24744C18.4341 2.86306 18.0674 2.62411 17.5541 2.42489C17.1666 2.27394 16.5842 2.09489 15.5117 2.046ZM9.66203 14.3909C10.1073 14.5754 10.5845 14.6703 11.0665 14.6703C12.04 14.6703 12.9735 14.2836 13.6618 13.5953C14.3502 12.907 14.7369 11.9734 14.7369 11C14.7369 10.0266 14.3502 9.093 13.6618 8.40468C12.9735 7.71636 12.04 7.32966 11.0665 7.32966C10.5845 7.32966 10.1073 7.4246 9.66203 7.60905C9.21663 7.7935 8.81206 8.06385 8.47124 8.40468C8.13042 8.7455 7.86006 9.1501 7.67561 9.5954C7.49116 10.0407 7.39623 10.518 7.39623 11C7.39623 11.482 7.49116 11.9593 7.67561 12.4046C7.86006 12.8499 8.13042 13.2545 8.47124 13.5953C8.81206 13.9361 9.21663 14.2065 9.66203 14.3909ZM7.06858 7.00201C8.12891 5.94168 9.56703 5.34599 11.0665 5.34599C12.5661 5.34599 14.0042 5.94168 15.0645 7.00201C16.1248 8.06234 16.7205 9.5005 16.7205 11C16.7205 12.4995 16.1248 13.9376 15.0645 14.998C14.0042 16.0583 12.5661 16.654 11.0665 16.654C9.56703 16.654 8.12891 16.0583 7.06858 14.998C6.00825 13.9376 5.41256 12.4995 5.41256 11C5.41256 9.5005 6.00825 8.06234 7.06858 7.00201ZM17.9742 6.18838C18.2248 5.93773 18.3656 5.59779 18.3656 5.24333C18.3656 4.88886 18.2248 4.54892 17.9742 4.29828C17.7235 4.04764 17.3836 3.90683 17.0291 3.90683C16.6747 3.90683 16.3347 4.04764 16.0841 4.29828C15.8334 4.54892 15.6926 4.88886 15.6926 5.24333C15.6926 5.59779 15.8334 5.93773 16.0841 6.18838C16.3347 6.43902 16.6747 6.57983 17.0291 6.57983C17.3836 6.57983 17.7235 6.43902 17.9742 6.18838Z" fill="white"/>
</svg>
