<svg width="115" height="60" viewBox="0 0 115 60" fill="none" xmlns="http://www.w3.org/2000/svg">
<path d="M7.10458 58.6202C3.73243 57.0038 0.866761 54.0671 0.244887 51.5902C-0.484419 48.6832 0.466266 43.0703 2.41872 38.7662C4.26067 34.7046 9.4489 26.5688 12.7103 22.627L14.2455 20.772L13.0073 24.3124C11.2852 29.2363 11.3539 34.5062 13.175 37.2082C15.8993 41.2498 21.3025 43.4085 26.1801 42.4024C29.7734 41.6646 64.6281 32.2018 65.8911 31.625C66.7718 31.2226 65.7464 31.0501 62.3344 31.0214H57.5407L57.4928 27.7752C57.4641 25.9891 57.259 23.3369 57.029 21.8815L56.6111 19.236L54.4772 25.1287L52.3431 31.0214H48.7556C46.7825 31.0214 45.1681 30.7819 45.1681 30.4944C45.1681 30.207 47.1442 24.709 49.5594 18.2807C51.9745 11.8534 54.4996 5.13287 55.1706 3.34685L56.3908 0.100606H60.0576C62.0743 0.100606 63.7244 0.196422 63.7244 0.292238C63.7244 0.397636 63.0306 2.25551 62.182 4.41903C61.3339 6.58352 60.7133 8.42798 60.8033 8.51805C60.8895 8.61386 62.492 6.76078 64.356 4.41329L67.745 0.144682H79.0995C89.2382 0.144682 90.4137 0.240497 90.076 1.10763C89.8681 1.65378 89.5298 2.76237 89.3247 3.58064C88.9797 4.9556 88.6529 5.06963 85.0803 5.06963H81.2097L79.9729 8.31683L78.736 11.5631L82.0549 11.7451C83.8803 11.8505 85.3738 12.205 85.3738 12.5404C85.3738 12.8758 84.977 14.0984 84.4911 15.2606C83.6478 17.2795 83.4506 17.381 80.041 17.5592L76.4738 17.7509L75.0477 21.4388C74.2628 23.4673 73.6216 25.2073 73.6216 25.3041C73.6216 25.3999 75.5613 25.4765 77.932 25.4765C81.5093 25.4765 82.1818 25.6394 81.8863 26.4059C81.6908 26.9138 81.8097 27.3354 82.1556 27.3354C82.4997 27.3354 89.952 25.3874 98.7162 23.0064C113.743 18.9246 117.895 18.0862 113.12 20.0993C111.978 20.5784 92.6723 28.9115 70.2193 38.6119C47.7661 48.3124 27.3078 57.0067 24.7563 57.9323C21.7227 59.0332 18.4047 59.7145 15.1688 59.9003C10.8568 60.1495 9.81959 59.9962 7.10247 58.6902L7.10458 58.6202ZM70.4638 14.0323C72.882 7.60396 74.8475 2.1779 74.8318 1.97285C74.8126 1.77164 72.455 4.10571 69.5849 7.16608L64.3666 12.732L64.3629 17.9885C64.3579 24.4599 64.9494 28.672 65.615 26.9138C65.8641 26.2526 68.0459 20.4596 70.464 14.0323H70.4638ZM16.7458 27.7579C17.431 25.9566 20.0296 19.0559 22.5203 12.4235L27.0489 0.3641L31.0883 0.182051L35.1277 0L34.9101 2.65411C34.3878 9.023 34.1674 13.0396 34.3399 13.0396C34.4424 13.0396 35.5987 10.1191 36.9101 6.54998L39.2945 0.0603638L42.8511 0.0536567C44.8072 0.0536567 46.4077 0.283616 46.4077 0.580646C46.4077 0.868094 44.4316 6.36697 42.0165 12.7943C39.6013 19.2226 37.0762 25.9422 36.4051 27.7282L35.1851 30.9754H31.1423H27.0995L27.4675 24.6362C27.6697 21.1495 27.6975 18.5759 27.5345 18.916C27.3668 19.2514 26.3 22.0386 25.1648 25.1L23.1008 30.6659L19.303 30.848L15.5052 31.03L16.7511 27.7541L16.7458 27.7579ZM36.5108 30.4494C36.5108 30.1619 38.4868 24.663 40.9019 18.2347C43.3172 11.8074 45.8422 5.08687 46.5133 3.30182L47.7334 0.0546139H51.4518C53.4969 0.0546139 55.0773 0.294154 54.9639 0.591184C54.8508 0.888213 52.2527 7.84062 49.1908 16.0453L43.6239 30.962L40.0673 30.9677C38.1112 30.9744 36.5108 30.7378 36.5108 30.4503V30.4494Z" fill="white"/>
</svg>
