<svg width="20" height="21" viewBox="0 0 20 21" fill="none" xmlns="http://www.w3.org/2000/svg">
<path d="M20 8.48759L12.6667 7.81542L10 0.421478L7.33333 7.81542L0 8.48759L6 13.1928L4 20.5868L10 15.8815L16 20.5868L14 13.1928L20 8.48759ZM14.8307 18.8183L10.4093 15.3509L10 15.0299L9.59067 15.3509L5.16933 18.8183L6.643 13.3699L6.76 12.9374L6.40933 12.6625L1.743 9.00282L7.394 8.48491L7.81567 8.44626L7.96033 8.0453L10 2.38827L12.0403 8.04497L12.185 8.44592L12.6067 8.48457L18.2577 9.00248L13.591 12.6621L13.24 12.9374L13.357 13.3699L14.8307 18.8183Z" fill="white"/>
</svg>
