<svg width="27" height="22" viewBox="0 0 27 22" fill="none" xmlns="http://www.w3.org/2000/svg">
<path d="M26.9485 2.62122C25.9554 3.05767 24.8923 3.35794 23.7718 3.49412C24.9151 2.80646 25.7892 1.71872 26.206 0.422914C25.1336 1.04883 23.9473 1.50219 22.6859 1.75848C21.6802 0.6792 20.2424 0 18.6469 0C15.5883 0 13.1093 2.4842 13.1093 5.5461C13.1093 5.98677 13.1625 6.40969 13.2545 6.81061C8.6535 6.59492 4.57481 4.37885 1.84697 1.03106C1.36772 1.84644 1.09519 2.79377 1.09519 3.82484C1.09519 5.75417 2.07478 7.44583 3.55556 8.44052C2.65022 8.4143 1.79803 8.16309 1.05131 7.74948V7.8163C1.05131 10.5069 2.95819 12.75 5.48944 13.2609C5.02791 13.3835 4.53516 13.4546 4.03481 13.4546C3.67959 13.4546 3.34041 13.4199 3.00206 13.3573C3.71419 15.5599 5.75269 17.1636 8.18269 17.2118C6.29353 18.6962 3.89897 19.5809 1.31878 19.5809C0.879187 19.5809 0.440438 19.5598 0 19.5065C2.46122 21.0797 5.36625 22 8.50416 22C18.6857 22 24.2494 13.5459 24.2494 6.22445C24.2494 5.991 24.2494 5.75333 24.2317 5.5148C25.3176 4.73918 26.2575 3.75632 27 2.64237L26.9485 2.62122Z" fill="white"/>
</svg>
